<?xml version="1.0" standalone="no"?>
<!DOCTYPE svg PUBLIC "-//W3C//DTD SVG 1.1//EN" "http://www.w3.org/Graphics/SVG/1.1/DTD/svg11.dtd" >
<svg xmlns="http://www.w3.org/2000/svg" xmlns:xlink="http://www.w3.org/1999/xlink" version="1.1">
<metadata></metadata>
<defs>
<font id="maaxmedium_italic" horiz-adv-x="1138" >
<font-face units-per-em="2048" ascent="1589" descent="-459" />
<missing-glyph horiz-adv-x="512" />
<glyph horiz-adv-x="0" />
<glyph horiz-adv-x="682" />
<glyph unicode=" "  horiz-adv-x="512" />
<glyph unicode="&#x09;" horiz-adv-x="512" />
<glyph unicode="&#xa0;" horiz-adv-x="512" />
<glyph unicode="!" horiz-adv-x="667" d="M147 123q0 61 43 104t105 43q61 0 104 -43t43 -104q0 -60 -43 -103t-104 -43t-104.5 43t-43.5 103zM213 432l141 1004h242l-141 -1004h-242z" />
<glyph unicode="&#x22;" horiz-adv-x="929" d="M205 887l78 549h233l-78 -549h-233zM598 887l78 549h233l-78 -549h-233z" />
<glyph unicode="#" horiz-adv-x="1798" d="M154 369l30 215h281l117 270h-254l30 213h312l159 369h250l-159 -369h329l158 369h252l-160 -369h223l-30 -213h-279l-117 -270h252l-30 -215h-314l-153 -369h-252l157 369h-329l-158 -369h-250l158 369h-223zM717 584h330l114 270h-330z" />
<glyph unicode="$" horiz-adv-x="1378" d="M98 248l185 162q117 -156 274 -197l59 410q-176 36 -274 136.5t-98 256.5q0 194 139 309q140 116 356 131l31 213h197l-33 -223q235 -44 377 -217l-183 -170q-83 117 -227 158l-55 -381q196 -38 298.5 -142.5t102.5 -263.5q0 -196 -139.5 -316.5t-386.5 -133.5l-31 -213 h-196l30 221q-269 41 -426 260zM494 1042q0 -126 159 -172l54 363q-97 -12 -155 -66t-58 -125zM754 201q116 13 179.5 68.5t63.5 142.5q0 137 -188 178z" />
<glyph unicode="%" horiz-adv-x="1505" d="M184 70l1067 1413l152 -113l-1069 -1417zM217 1139q0 131 94 225t226 94q115 0 186.5 -71t71.5 -181q0 -130 -95 -225q-91 -94 -223 -94q-115 0 -187.5 71t-72.5 181zM406 1159q0 -41 24.5 -65.5t61.5 -24.5q45 0 78.5 33.5t33.5 83.5q0 42 -22.5 67t-59.5 25 q-48 0 -82 -34.5t-34 -84.5zM791 229q0 132 94 226t225 94q114 0 185 -71t71 -181q0 -131 -94 -225q-92 -95 -223 -95q-115 0 -186.5 71t-71.5 181zM977 250q0 -40 25 -65t63 -25q48 0 80.5 33t32.5 83q0 41 -24 66t-60 25q-51 0 -84 -32t-33 -85z" />
<glyph unicode="&#x26;" horiz-adv-x="1406" d="M94 371q0 273 357 442l32 16q-92 157 -92 275q0 153 111 252q109 100 274 100q147 0 248 -90q98 -88 98 -225q0 -209 -291 -367l-28 -16l184 -291q82 113 135 256h248q-89 -252 -266 -449l176 -274h-262l-78 117q-184 -140 -401 -140q-216 0 -330 117q-115 118 -115 277z M336 381q0 -85 62 -139t155 -54q144 0 270 105l-229 362l-23 -10q-235 -107 -235 -264zM631 1106q0 -76 51 -150l14 -22l15 6q172 85 172 199q0 49 -31.5 77.5t-83.5 28.5q-53 0 -95 -39.5t-42 -99.5z" />
<glyph unicode="'" horiz-adv-x="536" d="M205 887l78 549h233l-78 -549h-233z" />
<glyph unicode="(" horiz-adv-x="817" d="M164 381q0 316 146 598t419 506l152 -164q-225 -188 -349 -431t-124 -517q0 -170 62 -341t169 -306l-178 -146q-131 146 -213 357q-84 212 -84 444z" />
<glyph unicode=")" horiz-adv-x="817" d="M-20 -256q225 188 349 431t124 517q0 169 -62.5 340t-169.5 307l178 146q131 -146 213 -357q84 -212 84 -444q0 -316 -146 -598t-419 -506z" />
<glyph unicode="*" horiz-adv-x="976" d="M229 1239l68 178l229 -78l23 248h190l-45 -248l250 76l29 -176l-248 -55l145 -193l-170 -114l-112 213l-168 -216l-141 125l184 185z" />
<glyph unicode="+" horiz-adv-x="1331" d="M158 397l30 215h392l55 392h215l-55 -392h397l-31 -215h-397l-55 -397h-215l55 397h-391z" />
<glyph unicode="," horiz-adv-x="612" d="M-27 -283l281 516h266l-311 -516h-236z" />
<glyph unicode="-" horiz-adv-x="1073" d="M164 430l31 215h747l-31 -215h-747z" />
<glyph unicode="." horiz-adv-x="667" d="M147 123q0 61 43 104t105 43q61 0 104 -43t43 -104q0 -60 -43 -103t-104 -43t-104.5 43t-43.5 103z" />
<glyph unicode="/" horiz-adv-x="1101" d="M88 0l807 1436h250l-805 -1436h-252z" />
<glyph unicode="0" horiz-adv-x="1327" d="M143 553q0 338 158 602q80 137 212 218t294 85q219 0 337 -154t118 -417q0 -329 -158 -606q-81 -139 -213 -221.5t-293 -82.5q-222 0 -340 158q-115 160 -115 418zM389 557q0 -171 62 -264.5t180 -93.5q102 0 183 72.5t124 189.5q78 218 78 424q0 169 -61.5 260.5 t-178.5 91.5q-97 0 -178 -70t-125 -184q-84 -221 -84 -426z" />
<glyph unicode="1" horiz-adv-x="1148" d="M78 0l31 221h356l127 907q-143 -104 -371 -104l31 215q132 6 240 55.5t167 141.5h222l-172 -1215h340l-31 -221h-940z" />
<glyph unicode="2" horiz-adv-x="1241" d="M55 0l6 47q35 253 140 393q110 147 340 265l135 69q145 74 206.5 137t61.5 146q0 80 -60 130t-159 50q-108 0 -212.5 -67.5t-166.5 -174.5l-141 166q78 129 227 213q150 84 313 84q187 0 314 -106q129 -105 129 -281q0 -151 -91.5 -261.5t-293.5 -217.5l-135 -72 q-136 -69 -211.5 -137.5t-100.5 -161.5h709l-31 -221h-979z" />
<glyph unicode="3" horiz-adv-x="1249" d="M70 215l180 158q119 -174 319 -174q125 0 207 67q86 68 86 168q0 90 -72.5 137t-207.5 47h-107l33 226h84q157 0 241.5 62.5t84.5 168.5q0 77 -59 119.5t-150 42.5q-182 0 -332 -156l-135 158q227 219 495 219q178 0 303 -98q125 -94 125 -268q0 -122 -58.5 -205 t-170.5 -150q73 -37 122.5 -118.5t49.5 -180.5q0 -204 -162 -332q-164 -129 -401 -129q-147 0 -276 66t-199 172z" />
<glyph unicode="4" horiz-adv-x="1273" d="M66 315l28 199l803 922h227l-127 -899h199l-31 -222h-198l-45 -315h-246l45 315h-655zM379 537h373l73 520z" />
<glyph unicode="5" horiz-adv-x="1202" d="M84 205l184 157q48 -76 127.5 -119.5t177.5 -43.5q136 0 228 86t92 213q0 98 -65.5 163.5t-165.5 65.5q-181 0 -279 -162h-221l155 871h840l-31 -222h-614l-68 -352q121 86 258 86q189 0 314 -119q127 -121 127 -323q0 -229 -166 -379q-163 -150 -430 -150 q-150 0 -271.5 61t-191.5 167z" />
<glyph unicode="6" horiz-adv-x="1298" d="M156 573q0 394 196 639q196 246 494 246q269 0 401 -184l-174 -158q-89 121 -248 121q-137 0 -254 -117q-115 -112 -153 -334q126 144 336 144q181 0 307 -117q129 -114 129 -307q0 -240 -160 -385q-156 -144 -383 -144q-229 0 -360 162t-131 434zM430 424 q0 -98 62.5 -161.5t164.5 -63.5q123 0 203 81t80 209q0 97 -62.5 157.5t-164.5 60.5q-115 0 -199 -78t-84 -205z" />
<glyph unicode="7" horiz-adv-x="1165" d="M168 963l65 473h1002l-29 -205q-245 -221 -412.5 -515t-242.5 -634l-19 -82h-247l18 80q156 679 594 1134h-459l-37 -251h-233z" />
<glyph unicode="8" horiz-adv-x="1251" d="M106 369q0 255 256 381q-52 32 -90.5 106.5t-38.5 157.5q0 200 148 321q150 123 379 123q189 0 307 -106q123 -105 123 -275q0 -231 -215 -348q67 -39 112.5 -118.5t45.5 -174.5q0 -211 -162 -336q-163 -123 -410 -123q-203 0 -330 109q-125 107 -125 283zM356 381 q0 -86 64.5 -134t171.5 -48q127 0 211 63t84 172q0 89 -64.5 139t-169.5 50q-125 0 -211 -68q-86 -65 -86 -174zM479 1014q0 -78 54.5 -123t150.5 -45q113 0 184.5 60.5t71.5 158.5q0 83 -57 127.5t-144 44.5q-103 0 -180 -57q-80 -56 -80 -166z" />
<glyph unicode="9" horiz-adv-x="1298" d="M156 162l174 157q88 -120 248 -120q136 0 253 114q116 116 154 336q-125 -143 -336 -143q-179 0 -309 115q-127 118 -127 309q0 237 158 383q160 145 385 145q226 0 358 -164q133 -165 133 -432q0 -394 -196 -639q-197 -246 -494 -246q-269 0 -401 185zM463 946 q0 -97 62.5 -157t164.5 -60q115 0 199 78t84 205q0 98 -63 161.5t-165 63.5q-122 0 -202 -81.5t-80 -209.5z" />
<glyph unicode=":" horiz-adv-x="595" d="M98 123q0 61 43 104t105 43t104.5 -43t42.5 -104q0 -60 -43 -103t-104 -43t-104.5 43t-43.5 103zM205 879q0 61 42.5 104t104.5 43t105 -43t43 -104q0 -60 -43.5 -103t-104.5 -43t-104 43t-43 103z" />
<glyph unicode=";" horiz-adv-x="612" d="M-27 -283l281 516h266l-311 -516h-236zM274 879q0 61 43 104t105 43t104.5 -43t42.5 -104q0 -60 -43 -103t-104 -43t-104.5 43t-43.5 103z" />
<glyph unicode="&#x3c;" horiz-adv-x="1239" d="M86 373l37 258l1061 397l-35 -248l-803 -282l725 -285l-35 -236z" />
<glyph unicode="=" horiz-adv-x="1331" d="M135 229l31 215h1003l-30 -215h-1004zM193 631l28 215h1004l-29 -215h-1003z" />
<glyph unicode="&#x3e;" horiz-adv-x="1239" d="M66 -23l34 248l803 283l-725 285l35 235l950 -395l-37 -258z" />
<glyph unicode="?" horiz-adv-x="1095" d="M147 1217q198 241 502 241q188 0 307 -104q121 -106 121 -271q0 -179 -125 -307q-123 -129 -319 -166l-25 -178h-237l53 375h68q136 0 239 65q100 63 100 187q0 79 -56.5 127.5t-143.5 48.5q-201 0 -348 -197zM301 123q0 61 43 104t105 43q61 0 104 -43t43 -104 q0 -60 -43 -103t-104 -43t-104.5 43t-43.5 103z" />
<glyph unicode="@" horiz-adv-x="2215" d="M137 381q0 312 150 561q152 252 405 383q257 133 565 133q393 0 619 -215q227 -211 227 -557q0 -295 -157 -502t-369 -207q-150 0 -215 142q-61 -60 -159.5 -101t-203.5 -41q-190 0 -307 132t-117 329q0 250 164 420q167 170 408 170q176 0 268 -115l15 91h229l-96 -682 q-18 -136 69 -136q102 0 176 158q74 160 74 332q0 260 -168 422q-167 164 -475 164q-234 0 -434 -105t-326 -305q-123 -200 -123 -451q0 -295 193 -458q194 -164 518 -164q205 0 403 71l-26 -200q-192 -70 -416 -70q-403 0 -647 215t-244 586zM817 449q0 -122 58 -196.5 t167 -74.5q144 0 232 113t88 260q0 118 -60.5 191t-168.5 73q-138 0 -226 -110q-90 -113 -90 -256z" />
<glyph unicode="A" horiz-adv-x="1413" d="M-39 0l764 1436h246l356 -1436h-246l-77 305h-613l-162 -305h-268zM510 530h436l-137 574z" />
<glyph unicode="B" horiz-adv-x="1419" d="M102 0l203 1436h598q203 0 322 -101q123 -99 123 -266q0 -220 -222 -338q74 -44 119 -123t45 -164q0 -214 -153 -329t-422 -115h-613zM377 221h319q351 0 351 215q0 185 -265 185h-348zM465 844h305q324 0 324 205q0 165 -275 165h-303z" />
<glyph unicode="C" horiz-adv-x="1433" d="M84 637q0 366 240 594q239 227 596 227q172 0 317 -71t227 -195l-176 -160q-144 203 -387 203q-234 0 -401 -170q-164 -170 -164 -418q0 -194 121 -321q119 -125 317 -125q251 0 445 215l137 -178q-243 -261 -606 -261q-293 0 -480 187q-186 186 -186 473z" />
<glyph unicode="D" horiz-adv-x="1482" d="M102 0l203 1436h449q112 0 211 -21.5t187 -69.5t151 -119.5t100 -178t37 -238.5q0 -208 -75.5 -370t-211.5 -257q-257 -182 -633 -182h-418zM377 221h160q107 0 200.5 19t177 63t143.5 109.5t95 165t35 223.5q0 210 -122.5 311.5t-350.5 101.5h-199z" />
<glyph unicode="E" horiz-adv-x="1314" d="M102 0l203 1436h1010l-33 -222h-766l-51 -370h731l-31 -223h-731l-57 -400h766l-31 -221h-1010z" />
<glyph unicode="F" horiz-adv-x="1185" d="M102 0l203 1436h940l-33 -222h-696l-51 -370h649l-31 -223h-649l-88 -621h-244z" />
<glyph unicode="G" horiz-adv-x="1544" d="M125 641q0 361 244 590q242 227 600 227q337 0 536 -266l-178 -158q-145 201 -391 201q-233 0 -397 -170q-162 -168 -162 -418q0 -194 121 -321q119 -125 317 -125q212 0 342 118l29 211h-330l33 222h571l-76 -535q-261 -240 -610 -240q-283 0 -467 187 q-182 188 -182 477z" />
<glyph unicode="H" horiz-adv-x="1488" d="M102 0l203 1436h244l-84 -592h674l84 592h245l-202 -1436h-246l88 621h-674l-88 -621h-244z" />
<glyph unicode="I" horiz-adv-x="571" d="M102 0l203 1436h244l-203 -1436h-244z" />
<glyph unicode="J" horiz-adv-x="1060" d="M8 186l182 160q88 -147 228 -147q103 0 172.5 69t87.5 201l135 967h248l-141 -983q-71 -476 -514 -476q-130 0 -232 56t-166 153z" />
<glyph unicode="K" horiz-adv-x="1363" d="M102 0l203 1436h244l-94 -660l620 660h314l-572 -607l416 -829h-279l-323 631l-230 -236l-55 -395h-244z" />
<glyph unicode="L" horiz-adv-x="1169" d="M102 0l203 1436h244l-172 -1215h680l-31 -221h-924z" />
<glyph unicode="M" horiz-adv-x="1703" d="M102 0l203 1436h244l311 -848l553 848h268l-202 -1436h-244l133 946l-420 -629h-225l-244 629l-133 -946h-244z" />
<glyph unicode="N" horiz-adv-x="1529" d="M102 0l203 1436h244l565 -1047l148 1047h245l-202 -1436h-246l-567 1042l-146 -1042h-244z" />
<glyph unicode="O" horiz-adv-x="1644" d="M125 645q0 345 242 578q241 235 589 235q277 0 459 -194t182 -476q0 -345 -243 -579q-244 -232 -592 -232q-276 0 -457 193q-180 192 -180 475zM377 647q0 -194 115 -321q113 -125 303 -125q227 0 391 170q164 173 164 417q0 193 -113 318q-115 127 -297 127 q-233 0 -399 -172q-164 -170 -164 -414z" />
<glyph unicode="P" horiz-adv-x="1316" d="M102 0l203 1436h526q226 0 365 -121q141 -120 141 -314q0 -234 -170 -372q-172 -140 -448 -140h-303l-70 -489h-244zM446 713h273q174 0 273.5 73t99.5 205q0 108 -80 165.5t-224 57.5h-272z" />
<glyph unicode="Q" horiz-adv-x="1689" d="M125 645q0 345 242 578q241 235 589 235q277 0 459 -194t182 -476q0 -324 -208 -548l118 -138l-172 -149l-123 143q-198 -119 -440 -119q-276 0 -463 193q-184 193 -184 475zM377 647q0 -187 115 -317q117 -129 303 -129q139 0 266 71l-160 189l168 147l160 -186 q121 160 121 366q0 193 -113 318q-115 127 -297 127q-233 0 -399 -172q-164 -170 -164 -414z" />
<glyph unicode="R" horiz-adv-x="1363" d="M102 0l203 1436h526q228 0 367 -115t139 -305q0 -171 -94.5 -297.5t-265.5 -188.5l256 -530h-264l-232 489h-321l-70 -489h-244zM446 713h263q176 0 279.5 75.5t103.5 212.5q0 99 -74 156t-209 57h-293z" />
<glyph unicode="S" horiz-adv-x="1353" d="M86 248l184 162q156 -211 404 -211q146 0 228.5 57.5t82.5 155.5q0 144 -207 182l-151 24q-187 31 -291.5 133.5t-104.5 264.5q0 204 158 323t393 119q330 0 516 -229l-182 -170q-126 178 -366 178q-123 0 -196 -56.5t-73 -138.5q0 -145 211 -182l121 -20 q207 -35 314.5 -140t107.5 -270q0 -205 -158 -330q-156 -123 -434 -123q-360 0 -557 271z" />
<glyph unicode="T" horiz-adv-x="1247" d="M178 1214l31 222h1108l-31 -222h-438l-170 -1214h-244l170 1214h-426z" />
<glyph unicode="U" horiz-adv-x="1437" d="M211 637l113 799h245l-112 -801q-9 -68 -9 -125q0 -311 281 -311q334 0 395 438l113 799h246l-115 -820q-44 -316 -211.5 -477.5t-437.5 -161.5q-265 0 -410 177q-108 135 -108 347q0 64 10 136z" />
<glyph unicode="V" horiz-adv-x="1366" d="M197 1436h243l217 -1141l531 1141h260l-692 -1436h-269z" />
<glyph unicode="W" horiz-adv-x="1914" d="M186 1436h250l103 -1049l409 1049h281l117 -1049l391 1049h272l-575 -1436h-271l-121 1038l-415 -1038h-269z" />
<glyph unicode="X" horiz-adv-x="1380" d="M-10 0l594 735l-363 701h285l248 -500l395 500h293l-563 -701l387 -735h-285l-276 528l-422 -528h-293z" />
<glyph unicode="Y" horiz-adv-x="1300" d="M188 1436h250l250 -668l434 668h273l-613 -934l-71 -502h-244l72 502z" />
<glyph unicode="Z" horiz-adv-x="1318" d="M68 0l28 211l877 1003h-731l32 222h1057l-31 -211l-876 -1004h731l-31 -221h-1056z" />
<glyph unicode="[" horiz-adv-x="786" d="M70 -397l258 1833h530l-31 -219h-286l-197 -1395h287l-31 -219h-530z" />
<glyph unicode="\" horiz-adv-x="909" d="M164 1436h239l404 -1436h-242z" />
<glyph unicode="]" horiz-adv-x="786" d="M-61 -397l30 219h287l197 1395h-287l31 219h530l-258 -1833h-530z" />
<glyph unicode="^" horiz-adv-x="1341" d="M154 700l542 736h226l340 -736h-244l-232 512l-374 -512h-258z" />
<glyph unicode="_" horiz-adv-x="1236" d="M0 -397l31 215h1003l-30 -215h-1004z" />
<glyph unicode="`" d="M436 1436h287l149 -269h-229z" />
<glyph unicode="a" horiz-adv-x="1202" d="M96 442q0 243 148 414q147 172 368 172q189 0 283 -143l16 119h224l-142 -1004h-223l12 98q-109 -121 -290 -121q-171 0 -285 132q-111 132 -111 333zM326 442q0 -119 58.5 -186.5t152.5 -67.5q144 0 227 103q86 106 86 256q0 123 -58 195.5t-171 72.5q-120 0 -207 -106 q-88 -107 -88 -267z" />
<glyph unicode="b" horiz-adv-x="1247" d="M80 0l203 1436h233l-72 -506q107 98 275 98q196 0 319 -129t123 -344q0 -249 -162 -414q-164 -164 -389 -164q-185 0 -286 119l-15 -96h-229zM375 451q0 -121 60 -195t169 -74q144 0 230 111q88 110 88 260q0 119 -61 193.5t-169 74.5q-146 0 -231 -110 q-86 -112 -86 -260z" />
<glyph unicode="c" horiz-adv-x="1103" d="M121 449q0 245 166 411q165 168 397 168q272 0 399 -201l-180 -151q-52 73 -102.5 106t-120.5 33q-131 0 -225 -104q-95 -106 -95 -256q0 -117 65 -192t169 -75q84 0 150 36.5t135 115.5l145 -156q-171 -207 -457 -207q-193 0 -319 129q-127 133 -127 343z" />
<glyph unicode="d" horiz-adv-x="1236" d="M94 449q0 251 162 413q163 166 403 166q164 0 271 -104l74 512h233l-203 -1436h-229l12 82q-114 -105 -301 -105t-305 136q-117 135 -117 336zM334 451q0 -120 60 -194.5t169 -74.5q147 0 232 111q86 112 86 260q0 120 -60 194t-170 74q-143 0 -231 -110 q-86 -112 -86 -260z" />
<glyph unicode="e" horiz-adv-x="1114" d="M94 440q0 244 156 416t395 172q195 0 293 -131q100 -129 100 -303q0 -67 -14 -139l-6 -23h-686v-17q0 -98 55 -160q60 -67 164 -67q171 0 289 142l141 -154q-184 -199 -449 -199q-199 0 -319 132q-119 131 -119 331zM371 618h428q1 13 1 25q0 67 -36 115 q-44 58 -137 57.5t-160.5 -56t-95.5 -141.5z" />
<glyph unicode="f" horiz-adv-x="712" d="M98 795l29 209h147l9 51q59 381 456 381l90 -2l-30 -215q-20 2 -54 2q-121 0 -170 -43q-48 -42 -69 -162l-2 -12h241l-28 -209h-242l-113 -795h-229l113 795h-148z" />
<glyph unicode="g" horiz-adv-x="1222" d="M49 -197l178 148q98 -162 277 -162q121 0 199 72t96 209l6 51q-116 -98 -281 -98q-186 0 -301 127q-112 124 -112 325q0 243 151 397q150 156 383 156q183 0 277 -117l12 93h229l-135 -961q-32 -224 -176 -343.5t-373 -119.5q-168 0 -278 72q-103 67 -152 151zM350 479 q0 -111 58.5 -177t160.5 -66q133 0 215 94q86 95 86 239q0 111 -59.5 178.5t-161.5 67.5q-131 0 -215 -96t-84 -240z" />
<glyph unicode="h" horiz-adv-x="1146" d="M82 0l203 1436h233l-74 -514q109 106 263 106q160 0 254 -99.5t94 -266.5q0 -46 -8 -103l-78 -559h-234l82 584q4 50 4 53q0 82 -46 131t-124 49q-105 0 -173 -70t-85 -192l-78 -555h-233z" />
<glyph unicode="i" horiz-adv-x="520" d="M80 0l141 1004h234l-142 -1004h-233zM229 1308.5q0 61.5 43 102.5q43 43 104.5 43t104.5 -43q43 -41 43 -102.5t-43 -104.5t-104.5 -43t-104.5 43t-43 104.5z" />
<glyph unicode="j" horiz-adv-x="634" d="M-119 -406l31 222q20 -2 53 -2q110 0 155 37.5t58 144.5l141 1008h232l-148 -1055q-26 -188 -129.5 -272.5t-302.5 -84.5zM328 1308.5q0 61.5 43 102.5q43 43 104.5 43t104.5 -43q43 -41 43 -102.5t-43 -104.5t-104.5 -43t-104.5 43t-43 104.5z" />
<glyph unicode="k" horiz-adv-x="1103" d="M82 0l203 1436h233l-115 -811l392 379h301l-453 -435l330 -569h-254l-244 416l-117 -113l-43 -303h-233z" />
<glyph unicode="l" horiz-adv-x="520" d="M82 0l203 1436h233l-203 -1436h-233z" />
<glyph unicode="m" horiz-adv-x="1742" d="M82 0l141 1004h230l-13 -89q107 113 267 113q175 0 251 -131q143 131 328 131q169 0 268 -100t99 -266q0 -30 -11 -109l-77 -553h-234l84 600q4 46 4 49q0 79 -40 123.5t-117 44.5q-98 0 -162.5 -66t-81.5 -180l-80 -571h-231l84 600q4 46 4 49q0 79 -40.5 123.5 t-117.5 44.5q-98 0 -161 -66t-81 -180l-80 -571h-233z" />
<glyph unicode="n" horiz-adv-x="1136" d="M72 0l141 1004h229l-12 -82q109 106 266 106q160 0 254 -99.5t94 -266.5q0 -46 -8 -103q0 -1 -8 -57.5t-28 -198t-42 -303.5h-233l82 584q4 50 4 53q0 82 -46 131t-124 49q-105 0 -173 -70t-85 -192l-78 -555h-233z" />
<glyph unicode="o" horiz-adv-x="1220" d="M96 457q0 245 170 409q168 162 418 162q200 0 328 -131q131 -131 131 -342q0 -247 -170 -414q-170 -164 -418 -164q-196 0 -330 134q-129 132 -129 346zM334 457q0 -119 67 -194t177 -75q134 0 229 103q94 104 94 256q0 119 -65.5 193.5t-173.5 74.5q-140 0 -234 -104 q-94 -101 -94 -254z" />
<glyph unicode="p" horiz-adv-x="1247" d="M25 -397l196 1401h230l-13 -91q121 115 301 115q192 0 305 -137q117 -135 117 -336q0 -251 -160 -416q-158 -162 -399 -162q-188 0 -276 111l-68 -485h-233zM375 449q0 -119 60 -193t169 -74q144 0 230 111q88 110 88 258q0 118 -61 192t-169 74q-146 0 -231 -110 q-86 -109 -86 -258z" />
<glyph unicode="q" horiz-adv-x="1247" d="M104 449q0 250 160 415q159 164 402 164q166 0 278 -115l12 91h230l-197 -1401h-233l65 471q-132 -97 -295 -97q-187 0 -305 136q-117 135 -117 336zM344 449q0 -119 60 -193t169 -74q146 0 232 109q86 112 86 260q0 119 -60 192.5t-169 73.5q-144 0 -232 -110 q-86 -112 -86 -258z" />
<glyph unicode="r" horiz-adv-x="778" d="M102 0l142 1004h229l-16 -109q120 123 323 123q29 0 45 -2l-30 -221q-10 2 -37 2q-169 0 -252.5 -94.5t-114.5 -309.5l-55 -393h-234z" />
<glyph unicode="s" horiz-adv-x="968" d="M47 172l162 145q106 -139 272 -139q170 0 170 105q0 62 -110 96l-150 41q-244 68 -244 291q0 141 113 229t281 88q240 0 374 -168l-163 -153q-95 120 -234 120q-61 0 -102 -28.5t-41 -69.5q0 -66 88 -90l172 -47q119 -32 182.5 -108.5t63.5 -186.5q0 -147 -115.5 -233.5 t-312.5 -86.5q-261 0 -406 195z" />
<glyph unicode="t" horiz-adv-x="712" d="M74 795l28 209h148l41 280h231l-41 -280h240l-29 -209h-239l-58 -406q-5 -36 -5 -65q0 -56 19 -80q28 -36 126 -37h75l-28 -205q-62 -4 -127 -4q-177 0 -247 95q-51 69 -51 193q0 46 7 99l57 410h-147z" />
<glyph unicode="u" horiz-adv-x="1124" d="M109 342q0 37 8 100l80 562h231l-84 -601q-2 -10 -2 -49q0 -80 42 -124t120 -44q97 0 161.5 69t82.5 183l79 566h234l-141 -1004h-230l10 82q-105 -105 -258 -105t-243 99.5t-90 265.5z" />
<glyph unicode="v" horiz-adv-x="966" d="M80 1004h242l133 -703l329 703h263l-498 -1004h-254z" />
<glyph unicode="w" horiz-adv-x="1601" d="M137 1004h246l72 -693l280 693h299l84 -693l268 693h261l-418 -1004h-283l-94 713l-297 -713h-283z" />
<glyph unicode="x" horiz-adv-x="1028" d="M-14 0l420 516l-256 488h258l143 -299l231 299h279l-395 -488l276 -516h-258l-166 328l-254 -328h-278z" />
<glyph unicode="y" horiz-adv-x="1118" d="M115 1004h256l159 -725l369 725h264l-757 -1401h-246l209 385z" />
<glyph unicode="z" horiz-adv-x="1032" d="M68 0l28 199l549 596h-455l29 209h764l-29 -199l-553 -594h494l-29 -211h-798z" />
<glyph unicode="{" horiz-adv-x="854" d="M66 408l30 223h234l59 418q29 203 124.5 296t279.5 93h131l-31 -217h-74q-91 0 -135.5 -43.5t-58.5 -143.5l-146 -1028q-14 -100 19.5 -143t124.5 -43h73l-30 -217h-111q-178 0 -260 107.5t-53 299.5l57 398h-233z" />
<glyph unicode="|" horiz-adv-x="890" d="M211 -397l258 1833h238l-258 -1833h-238z" />
<glyph unicode="}" horiz-adv-x="854" d="M-70 -397l31 217h74q91 0 135.5 43t58.5 143l146 1028q14 100 -19.5 143.5t-124.5 43.5h-73l30 217h111q178 0 260 -107.5t53 -300.5l-57 -397h233l-30 -223h-234l-59 -418q-29 -203 -124.5 -296t-279.5 -93h-131z" />
<glyph unicode="~" horiz-adv-x="1058" d="M123 385q18 139 98.5 221t186.5 82q49 0 110 -22l103 -41q53 -17 73 -17q68 0 86 80h197q-18 -139 -95.5 -221t-179.5 -82q-59 0 -120 23l-103 43q-50 16 -73 16q-68 0 -89 -82h-194z" />
<glyph unicode="&#xa1;" horiz-adv-x="667" d="M96 -397l135 968h242l-135 -968h-242zM250 883q0 60 43 102.5t104 42.5t104.5 -42.5t43.5 -102.5q0 -61 -43.5 -104.5t-104.5 -43.5t-104 43t-43 105z" />
<glyph unicode="&#xa2;" horiz-adv-x="1128" d="M133 449q0 225 139 385q143 161 346 188l31 215h199l-31 -221q183 -40 279 -189l-181 -151q-67 95 -129 121l-84 -596q93 27 189 139l145 -156q-139 -173 -364 -200l-31 -217h-199l31 223q-154 33 -247 157t-93 302zM373 455q0 -182 131 -246l82 586q-95 -37 -154 -130 t-59 -210z" />
<glyph unicode="&#xa3;" horiz-adv-x="1339" d="M68 0l32 233h275l-31 429h-182l31 229h141q0 69 6 113q34 226 180 342q141 112 324 112q275 0 446 -223l-178 -158q-115 160 -272 160q-102 0 -171.5 -63.5t-86.5 -182.5q-4 -46 -4 -100h389l-31 -229h-346l33 -429h311l35 252h215l-68 -485h-1048z" />
<glyph unicode="&#xa5;" horiz-adv-x="1300" d="M143 236l29 202h367l20 142h-366l28 202h260l-284 654h252l260 -598l405 598h266l-446 -654h266l-29 -202h-366l-21 -142h367l-29 -202h-366l-33 -236h-246l33 236h-367z" />
<glyph unicode="&#xa6;" horiz-adv-x="890" d="M211 -397l104 747h238l-104 -747h-238zM362 688l107 748h238l-107 -748h-238z" />
<glyph unicode="&#xa7;" horiz-adv-x="1284" d="M92 -141l176 149q127 -213 322 -213q87 0 140.5 42t53.5 110q0 60 -41.5 96t-140.5 74l-162 57q-299 108 -299 371q0 217 203 352q-51 71 -51 178q0 166 133 275q132 108 324 108q249 0 426 -213l-170 -149q-64 78 -126 113.5t-147 35.5q-87 0 -144 -44t-57 -111 q0 -107 142 -166l143 -58q171 -70 248.5 -157t77.5 -224q0 -104 -39 -181.5t-127 -151.5q47 -71 47 -166q0 -166 -125 -285q-124 -121 -340 -121q-295 0 -467 279zM385 580q0 -63 41 -107.5t139 -85.5l262 -104q78 93 78 172q0 61 -40.5 102t-141.5 84l-254 109 q-84 -72 -84 -170z" />
<glyph unicode="&#xa8;" d="M366 1318.5q0 53.5 37 90.5q38 38 90.5 38t90.5 -38q38 -37 38 -90.5t-38 -91.5q-38 -37 -90.5 -37t-90.5 37q-37 38 -37 91.5zM759 1318.5q0 53.5 38 90.5q38 38 89.5 38t88.5 -38q38 -37 38 -90.5t-38 -91.5q-37 -37 -88.5 -37t-89.5 37q-38 38 -38 91.5z" />
<glyph unicode="&#xa9;" horiz-adv-x="1691" d="M150 639q0 224 114 414q117 190 307.5 297.5t407.5 107.5q283 0 463 -192t180 -471q2 -110 -29 -217.5t-87.5 -198t-136 -167t-171 -129t-197 -81t-210.5 -25.5q-281 0 -463 191q-178 190 -178 471zM305 645q0 -221 139 -369q139 -145 359 -145q267 0 465 195 q196 193 196 462q0 219 -139 367q-138 150 -356 150q-267 0 -467 -197q-197 -197 -197 -463zM492 676q0 190 135 319t327 129q183 0 281 -143l-137 -117q-65 86 -158 86q-100 0 -178 -78q-74 -77 -74 -190q0 -88 52.5 -144.5t138.5 -56.5q106 0 202 78l66 -151 q-113 -101 -285 -101q-168 0 -270 105q-100 106 -100 264z" />
<glyph unicode="&#xaa;" horiz-adv-x="851" d="M168 907q0 113 88 180q88 70 213 70q77 0 162 -24l4 30q7 62 -19 94.5t-81 32.5q-97 0 -175 -84l-108 121q125 131 303 131q145 0 216 -86t48 -244l-59 -428h-187l5 39q-76 -55 -181 -55q-97 0 -163 63.5t-66 159.5zM360 918q0 -31 25 -50.5t68 -19.5q75 0 145 49l12 80 q-64 24 -127 24q-56 0 -89.5 -23t-33.5 -60z" />
<glyph unicode="&#xab;" horiz-adv-x="1296" d="M78 502l350 502h256l-362 -512l208 -492h-241zM627 502l350 502h256l-363 -512l209 -492h-241z" />
<glyph unicode="&#xac;" horiz-adv-x="1284" d="M139 430l31 215h981l-72 -508h-221l41 293h-760z" />
<glyph unicode="&#xad;" horiz-adv-x="1073" d="M164 430l31 215h747l-31 -215h-747z" />
<glyph unicode="&#xae;" horiz-adv-x="1349" d="M174 823q0 259 182 447t449 188q212 0 354 -145q144 -144 144 -355q0 -258 -185 -446q-184 -184 -452 -184q-213 0 -353 143q-139 145 -139 352zM328 840q0 -156 98 -260q100 -103 252 -103q202 0 334 135q135 135 135 330q0 158 -98 262q-98 107 -254 107 q-200 0 -334 -137q-133 -139 -133 -334zM494 647l73 514h232q85 0 139.5 -45.5t54.5 -124.5q0 -122 -131 -180l96 -164h-153l-78 141h-74l-20 -141h-139zM672 913h67q113 0 113 74q0 53 -96 53h-68z" />
<glyph unicode="&#xaf;" d="M459 1241l26 195h490l-27 -195h-489z" />
<glyph unicode="&#xb0;" horiz-adv-x="911" d="M209 1092q0 156 110 260q112 106 269 106q135 0 221 -84.5t86 -222.5q0 -155 -113 -262q-110 -107 -268 -107q-129 0 -219 84q-86 86 -86 226zM414 1102q0 -54 33.5 -87.5t84.5 -33.5q62 0 108 46.5t46 111.5q0 54 -34 88.5t-85 34.5q-63 0 -108 -47t-45 -113z" />
<glyph unicode="&#xb1;" horiz-adv-x="1331" d="M102 0l31 215h1004l-31 -215h-1004zM211 776l31 215h391l55 391h215l-55 -391h397l-31 -215h-397l-55 -397h-215l55 397h-391z" />
<glyph unicode="&#xb2;" horiz-adv-x="872" d="M174 631l4 24q23 137 101 233.5t229 184.5l24 14q74 44 102 72.5t28 63.5q0 32 -26 51.5t-65 19.5q-100 0 -202 -123l-107 123q54 72 137 118t176 46q122 0 201.5 -62t79.5 -161q0 -78 -53.5 -144.5t-169.5 -140.5l-72 -45q-95 -59 -121 -106h351l-25 -168h-592z" />
<glyph unicode="&#xb3;" horiz-adv-x="823" d="M127 754l133 116q64 -98 170 -98q57 0 92 27t35 71q0 86 -129 86h-74l23 168h59q148 0 148 99q0 32 -26 51.5t-69 19.5q-89 0 -161 -90l-111 127q121 127 295 127q109 0 186 -57q80 -59 80 -158q0 -128 -131 -201q42 -19 70 -67t28 -103q0 -126 -98 -196 q-94 -70 -231 -70q-180 0 -289 148z" />
<glyph unicode="&#xb4;" d="M504 1167l223 269h287l-281 -269h-229z" />
<glyph unicode="&#xb5;" horiz-adv-x="1189" d="M47 -397l197 1401h233l-82 -588q-13 -104 27.5 -161.5t128.5 -57.5q97 0 162.5 69t83.5 183l77 555h234l-141 -1004h-230l13 82q-114 -105 -252 -105q-100 0 -158 46l-59 -420h-234z" />
<glyph unicode="&#xb6;" horiz-adv-x="1554" d="M129 942q0 216 166 354q172 140 430 140h807l-258 -1833h-238l228 1622h-224l-227 -1622h-240l129 925h-75q-218 0 -359 117q-139 118 -139 297z" />
<glyph unicode="&#xb7;" horiz-adv-x="761" d="M254 537q0 61 43 104t104 43q62 0 105 -43t43 -104q0 -60 -43.5 -103t-104.5 -43t-104 43t-43 103z" />
<glyph unicode="&#xb8;" horiz-adv-x="1103" d="M262 -281l176 269h224l-154 -269h-246z" />
<glyph unicode="&#xb9;" horiz-adv-x="847" d="M190 631l23 166h205l59 417q-74 -51 -211 -51l23 164q169 3 231 109h176l-90 -639h197l-23 -166h-590z" />
<glyph unicode="&#xba;" horiz-adv-x="1007" d="M188 1030q0 187 129 307q133 121 320 121q157 0 258 -98q100 -97 100 -256q0 -188 -131 -307q-128 -119 -315 -119q-156 0 -260 96q-101 98 -101 256zM393 1038q0 -76 46.5 -126t123.5 -50q97 0 162.5 68t65.5 166q0 79 -46.5 128.5t-123.5 49.5q-96 0 -162 -68.5 t-66 -167.5z" />
<glyph unicode="&#xbb;" horiz-adv-x="1296" d="M63 0l363 512l-209 492h242l211 -502l-351 -502h-256zM612 0l363 512l-209 492h242l211 -502l-351 -502h-256z" />
<glyph unicode="&#xbc;" horiz-adv-x="1978" d="M209 631l22 166h205l60 417q-74 -51 -211 -51l22 164q170 3 232 109h176l-90 -639h196l-22 -166h-590zM430 0l1071 1436h256l-1073 -1436h-254zM1151 162l23 153l436 467h178l-66 -454h123l-22 -166h-123l-23 -162h-188l22 162h-360zM1362 328h172l31 217z" />
<glyph unicode="&#xbd;" horiz-adv-x="2045" d="M190 631l23 166h205l59 417q-74 -51 -211 -51l23 164q169 3 231 109h176l-90 -639h197l-23 -166h-590zM412 0l1071 1436h256l-1073 -1436h-254zM1253 -23l4 25q23 137 101 233.5t229 184.5l25 14q74 44 101.5 72t27.5 63q0 32 -25.5 52t-64.5 20q-101 0 -203 -123 l-107 123q53 72 137 118t177 46q122 0 201 -62t79 -161q0 -78 -53.5 -144.5t-169.5 -140.5l-72 -45q-93 -58 -120 -107h350l-25 -168h-592z" />
<glyph unicode="&#xbe;" horiz-adv-x="1828" d="M127 754l133 116q64 -98 170 -98q57 0 92 27t35 71q0 86 -129 86h-74l23 168h59q148 0 148 99q0 32 -26 51.5t-69 19.5q-89 0 -161 -90l-111 127q121 127 295 127q109 0 186 -57q80 -59 80 -158q0 -128 -131 -201q42 -19 70 -67t28 -103q0 -126 -98 -196 q-94 -70 -231 -70q-180 0 -289 148zM281 0l1071 1436h256l-1073 -1436h-254zM1001 162l23 153l436 467h178l-65 -454h123l-23 -166h-123l-22 -162h-189l23 162h-361zM1212 328h172l31 217z" />
<glyph unicode="&#xbf;" horiz-adv-x="1095" d="M-14 -43q0 174 120.5 292t325.5 157l23 167h237l-51 -364h-68q-138 0 -241 -62q-101 -58 -101 -172q0 -76 55.5 -124t145.5 -48q201 0 348 197l135 -178q-199 -242 -501 -242q-191 0 -310 107q-118 103 -118 270zM467 883q0 60 43 102.5t104 42.5t104.5 -42.5 t43.5 -102.5q0 -61 -43 -104.5t-105 -43.5q-61 0 -104 43t-43 105z" />
<glyph unicode="&#xc0;" horiz-adv-x="1413" d="M-39 0l764 1436h246l356 -1436h-246l-77 305h-613l-162 -305h-268zM510 530h436l-137 574zM563 1786h299l148 -211h-252z" />
<glyph unicode="&#xc1;" horiz-adv-x="1413" d="M-39 0l764 1436h246l356 -1436h-246l-77 305h-613l-162 -305h-268zM510 530h436l-137 574zM688 1575l205 211h309l-252 -211h-262z" />
<glyph unicode="&#xc2;" horiz-adv-x="1413" d="M-39 0l764 1436h246l356 -1436h-246l-77 305h-613l-162 -305h-268zM510 530h436l-137 574zM541 1575l215 211h278l158 -211h-223l-82 90l-107 -90h-239z" />
<glyph unicode="&#xc3;" horiz-adv-x="1413" d="M-39 0l764 1436h246l356 -1436h-246l-77 305h-613l-162 -305h-268zM510 530h436l-137 574zM537 1565q14 100 74.5 166.5t138.5 66.5q46 0 84 -14l77 -31q53 -16 66 -16q46 0 55 49h164q-14 -100 -74.5 -167t-138.5 -67q-41 0 -82 15l-80 30q-42 17 -65 17q-47 0 -56 -49 h-163z" />
<glyph unicode="&#xc4;" horiz-adv-x="1413" d="M-39 0l764 1436h246l356 -1436h-246l-77 305h-613l-162 -305h-268zM510 530h436l-137 574zM538 1681q0 54 37 91q38 38 90.5 38t90.5 -38t38 -90.5t-38 -90.5t-90.5 -38.5t-90.5 36.5q-37 38 -37 92zM931 1681.5q0 52.5 38 90.5t89.5 38t88.5 -38q38 -37 38 -91t-38 -92 q-37 -37 -88.5 -36.5t-89.5 38.5t-38 90.5z" />
<glyph unicode="&#xc5;" horiz-adv-x="1413" d="M-39 0l760 1430q-64 52 -64 151q0 97 68 162t158 65q86 0 141 -51.5t55 -136.5q0 -121 -106 -190l354 -1430h-246l-77 305h-613l-162 -305h-268zM510 530h436l-137 574zM784 1591q0 -31 19.5 -51t50.5 -20q38 0 66 25t28 65q0 32 -19 51.5t-50 19.5q-38 0 -66.5 -26.5 t-28.5 -63.5z" />
<glyph unicode="&#xc6;" horiz-adv-x="1886" d="M-39 0l764 1436h1163l-33 -222h-831l92 -370h653l-30 -223h-565l98 -400h444l-30 -221h-605l-77 305h-613l-162 -305h-268zM510 530h436l-137 574z" />
<glyph unicode="&#xc7;" horiz-adv-x="1433" d="M84 637q0 366 240 594q239 227 596 227q172 0 317 -71t227 -195l-176 -160q-144 203 -387 203q-234 0 -401 -170q-164 -170 -164 -418q0 -194 121 -321q119 -125 317 -125q251 0 445 215l137 -178q-218 -235 -531 -256l-149 -263h-246l176 269h15q-242 40 -390 217 q-147 179 -147 432z" />
<glyph unicode="&#xc8;" horiz-adv-x="1314" d="M102 0l203 1436h1010l-33 -222h-766l-51 -370h731l-31 -223h-731l-57 -400h766l-31 -221h-1010zM563 1786h299l148 -211h-252z" />
<glyph unicode="&#xc9;" horiz-adv-x="1314" d="M102 0l203 1436h1010l-33 -222h-766l-51 -370h731l-31 -223h-731l-57 -400h766l-31 -221h-1010zM655 1575l205 211h309l-251 -211h-263z" />
<glyph unicode="&#xca;" horiz-adv-x="1314" d="M102 0l203 1436h1010l-33 -222h-766l-51 -370h731l-31 -223h-731l-57 -400h766l-31 -221h-1010zM510 1575l215 211h279l157 -211h-223l-82 90l-106 -90h-240z" />
<glyph unicode="&#xcb;" horiz-adv-x="1314" d="M102 0l203 1436h1010l-33 -222h-766l-51 -370h731l-31 -223h-731l-57 -400h766l-31 -221h-1010zM528 1681q0 53 38 91t89 38q53 0 91 -38.5t38 -90.5t-38 -90.5t-91 -38.5q-51 0 -89 38t-38 91zM920 1681q0 52 38 90.5t91 38.5q51 0 89 -38t38 -91t-38 -91t-89 -38 q-53 0 -91 38.5t-38 90.5z" />
<glyph unicode="&#xcc;" horiz-adv-x="571" d="M102 0l203 1436h244l-203 -1436h-244zM143 1786h299l148 -211h-252z" />
<glyph unicode="&#xcd;" horiz-adv-x="571" d="M102 0l203 1436h244l-203 -1436h-244zM291 1575l205 211h309l-252 -211h-262z" />
<glyph unicode="&#xce;" horiz-adv-x="571" d="M102 0l203 1436h244l-203 -1436h-244zM123 1575l215 211h278l158 -211h-223l-82 90l-107 -90h-239z" />
<glyph unicode="&#xcf;" horiz-adv-x="571" d="M102 0l203 1436h244l-203 -1436h-244zM137 1681q0 54 37 91q38 38 90 38t90 -38t38 -90.5t-38 -90.5t-90 -38.5t-90 36.5q-37 38 -37 92zM529 1681.5q0 52.5 38 90.5t89.5 38t88.5 -38q38 -37 38 -91t-38 -92q-37 -37 -88.5 -36.5t-89.5 38.5t-38 90.5z" />
<glyph unicode="&#xd0;" horiz-adv-x="1552" d="M96 621l31 223h164l84 592h448q112 0 211 -21.5t187 -69.5t151 -119.5t100 -178t37 -238.5q0 -208 -75.5 -370t-210.5 -257q-257 -182 -633 -182h-418l88 621h-164zM446 221h160q107 0 200.5 19t177 63t143.5 109.5t95 165t35 223.5q0 210 -122.5 311.5t-350.5 101.5 h-198l-54 -370h248l-30 -223h-248z" />
<glyph unicode="&#xd1;" horiz-adv-x="1529" d="M102 0l203 1436h244l565 -1047l148 1047h245l-202 -1436h-246l-567 1042l-146 -1042h-244zM608 1565q14 100 74.5 166.5t138.5 66.5q46 0 84 -14l78 -31q53 -16 66 -16q46 0 55 49h164q-14 -100 -74.5 -167t-138.5 -67q-42 0 -82 15l-80 30q-42 17 -66 17q-46 0 -55 -49 h-164z" />
<glyph unicode="&#xd2;" horiz-adv-x="1644" d="M125 645q0 345 242 578q241 235 589 235q277 0 459 -194t182 -476q0 -345 -243 -579q-244 -232 -592 -232q-276 0 -457 193q-180 192 -180 475zM377 647q0 -194 115 -321q113 -125 303 -125q227 0 391 170q164 173 164 417q0 193 -113 318q-115 127 -297 127 q-233 0 -399 -172q-164 -170 -164 -414zM668 1786h299l147 -211h-252z" />
<glyph unicode="&#xd3;" horiz-adv-x="1644" d="M125 645q0 345 242 578q241 235 589 235q277 0 459 -194t182 -476q0 -345 -243 -579q-244 -232 -592 -232q-276 0 -457 193q-180 192 -180 475zM377 647q0 -194 115 -321q113 -125 303 -125q227 0 391 170q164 173 164 417q0 193 -113 318q-115 127 -297 127 q-233 0 -399 -172q-164 -170 -164 -414zM819 1575l205 211h309l-252 -211h-262z" />
<glyph unicode="&#xd4;" horiz-adv-x="1644" d="M125 645q0 345 242 578q241 235 589 235q277 0 459 -194t182 -476q0 -345 -243 -579q-244 -232 -592 -232q-276 0 -457 193q-180 192 -180 475zM377 647q0 -194 115 -321q113 -125 303 -125q227 0 391 170q164 173 164 417q0 193 -113 318q-115 127 -297 127 q-233 0 -399 -172q-164 -170 -164 -414zM649 1575l215 211h279l157 -211h-223l-82 90l-106 -90h-240z" />
<glyph unicode="&#xd5;" horiz-adv-x="1644" d="M125 645q0 345 242 578q241 235 589 235q277 0 459 -194t182 -476q0 -345 -243 -579q-244 -232 -592 -232q-276 0 -457 193q-180 192 -180 475zM377 647q0 -194 115 -321q113 -125 303 -125q227 0 391 170q164 173 164 417q0 193 -113 318q-115 127 -297 127 q-233 0 -399 -172q-164 -170 -164 -414zM653 1565q14 100 74.5 166.5t138.5 66.5q46 0 84 -14l78 -31q53 -16 66 -16q46 0 55 49h164q-14 -100 -74.5 -167t-138.5 -67q-42 0 -82 15l-80 30q-42 17 -66 17q-46 0 -55 -49h-164z" />
<glyph unicode="&#xd6;" horiz-adv-x="1644" d="M125 645q0 345 242 578q241 235 589 235q277 0 459 -194t182 -476q0 -345 -243 -579q-244 -232 -592 -232q-276 0 -457 193q-180 192 -180 475zM377 647q0 -194 115 -321q113 -125 303 -125q227 0 391 170q164 173 164 417q0 193 -113 318q-115 127 -297 127 q-233 0 -399 -172q-164 -170 -164 -414zM674 1681q0 54 37 91q38 38 90 38t90 -38t38 -90.5t-38 -90.5t-90 -38.5t-90 36.5q-37 38 -37 92zM1066 1681.5q0 52.5 38 90.5t89.5 38t88.5 -38q38 -37 38 -91t-38 -92q-37 -37 -88.5 -36.5t-89.5 38.5t-38 90.5z" />
<glyph unicode="&#xd7;" horiz-adv-x="1239" d="M125 207l352 307l-254 295l166 143l252 -295l346 306l139 -162l-344 -305l258 -299l-166 -144l-258 299l-350 -307z" />
<glyph unicode="&#xd8;" horiz-adv-x="1644" d="M125 645q0 345 242 578q241 235 589 235q170 0 312 -80l104 125l162 -133l-102 -123q165 -192 165 -459q0 -345 -243 -579q-244 -232 -592 -232q-179 0 -324 86l-102 -122l-160 133l105 125q-156 184 -156 446zM377 647q0 -147 65 -256l672 805q-81 37 -174 37 q-233 0 -399 -172q-164 -170 -164 -414zM594 248q89 -47 201 -47q227 0 391 170q164 173 164 417q0 158 -76 271z" />
<glyph unicode="&#xd9;" horiz-adv-x="1437" d="M211 637l113 799h245l-112 -801q-61 -436 272 -436q334 0 395 438l113 799h246l-115 -820q-44 -316 -211.5 -477.5t-437.5 -161.5q-265 0 -410 177q-141 176 -98 483zM627 1786h299l147 -211h-252z" />
<glyph unicode="&#xda;" horiz-adv-x="1437" d="M211 637l113 799h245l-112 -801q-61 -436 272 -436q334 0 395 438l113 799h246l-115 -820q-44 -316 -211.5 -477.5t-437.5 -161.5q-265 0 -410 177q-141 176 -98 483zM733 1575l205 211h309l-252 -211h-262z" />
<glyph unicode="&#xdb;" horiz-adv-x="1437" d="M211 637l113 799h245l-112 -801q-61 -436 272 -436q334 0 395 438l113 799h246l-115 -820q-44 -316 -211.5 -477.5t-437.5 -161.5q-265 0 -410 177q-141 176 -98 483zM592 1575l215 211h278l158 -211h-223l-82 90l-107 -90h-239z" />
<glyph unicode="&#xdc;" horiz-adv-x="1437" d="M211 637l113 799h245l-112 -801q-61 -436 272 -436q334 0 395 438l113 799h246l-115 -820q-44 -316 -211.5 -477.5t-437.5 -161.5q-265 0 -410 177q-141 176 -98 483zM614 1681q0 54 37 91q38 38 90 38t90 -38t38 -90.5t-38 -90.5t-90 -38.5t-90 36.5q-37 38 -37 92z M1006 1681.5q0 52.5 38 90.5t90 38t89 -38q38 -37 38 -91t-38 -92q-37 -37 -89 -36.5t-90 38.5t-38 90.5z" />
<glyph unicode="&#xdd;" horiz-adv-x="1300" d="M188 1436h250l250 -668l434 668h273l-613 -934l-71 -502h-244l72 502zM643 1575l205 211h309l-252 -211h-262z" />
<glyph unicode="&#xde;" horiz-adv-x="1316" d="M102 0l199 1436h248l-33 -226h264q227 0 365 -120q141 -120 141 -314q0 -235 -170 -373q-171 -139 -448 -139h-285l-37 -264h-244zM414 487h254q173 0 272.5 73.5t99.5 205.5q0 108 -79.5 165.5t-223.5 57.5h-254z" />
<glyph unicode="&#xdf;" horiz-adv-x="1306" d="M90 0l123 881q38 270 189 412.5t399 142.5q182 0 309 -103t127 -264q0 -105 -50.5 -196.5t-135.5 -141.5q163 -102 163 -295q0 -184 -145 -311q-143 -125 -383 -125h-194l28 211h164q133 0 214 58.5t81 162.5q0 88 -69 135t-197 47h-135l28 209h121q120 0 196 64.5 t76 163.5q0 75 -58.5 124.5t-156.5 49.5q-291 0 -338 -344l-122 -881h-234z" />
<glyph unicode="&#xe0;" horiz-adv-x="1052" d="M-18 442q0 244 147 414q147 172 369 172q188 0 282 -143l17 119h223l-141 -1004h-224l13 98q-109 -121 -291 -121q-171 0 -285 132q-110 131 -110 333zM211 442q0 -119 58.5 -186.5t152.5 -67.5q144 0 227 103q86 106 86 256q0 123 -58 195.5t-171 72.5q-120 0 -207 -106 q-88 -107 -88 -267zM401 1436h287l150 -269h-230z" />
<glyph unicode="&#xe1;" horiz-adv-x="1052" d="M-18 442q0 244 147 414q147 172 369 172q188 0 282 -143l17 119h223l-141 -1004h-224l13 98q-109 -121 -291 -121q-171 0 -285 132q-110 131 -110 333zM211 442q0 -119 58.5 -186.5t152.5 -67.5q144 0 227 103q86 106 86 256q0 123 -58 195.5t-171 72.5q-120 0 -207 -106 q-88 -107 -88 -267zM457 1167l223 269h287l-281 -269h-229z" />
<glyph unicode="&#xe2;" horiz-adv-x="1052" d="M-18 442q0 244 147 414q147 172 369 172q188 0 282 -143l17 119h223l-141 -1004h-224l13 98q-109 -121 -291 -121q-171 0 -285 132q-110 131 -110 333zM211 442q0 -119 58.5 -186.5t152.5 -67.5q144 0 227 103q86 106 86 256q0 123 -58 195.5t-171 72.5q-120 0 -207 -106 q-88 -107 -88 -267zM305 1167l236 269h264l162 -269h-222l-86 123l-118 -123h-236z" />
<glyph unicode="&#xe3;" horiz-adv-x="1052" d="M-18 442q0 244 147 414q147 172 369 172q188 0 282 -143l17 119h223l-141 -1004h-224l13 98q-109 -121 -291 -121q-171 0 -285 132q-110 131 -110 333zM211 442q0 -119 58.5 -186.5t152.5 -67.5q144 0 227 103q86 106 86 256q0 123 -58 195.5t-171 72.5q-120 0 -207 -106 q-88 -107 -88 -267zM324 1214q14 100 74.5 167t138.5 67q46 0 84 -14l77 -31q56 -17 66 -17q46 0 55 50h164q-14 -100 -74.5 -167t-138.5 -67q-42 0 -82 15l-80 30q-42 17 -65 17q-47 0 -56 -50h-163z" />
<glyph unicode="&#xe4;" horiz-adv-x="1052" d="M-18 442q0 244 147 414q147 172 369 172q188 0 282 -143l17 119h223l-141 -1004h-224l13 98q-109 -121 -291 -121q-171 0 -285 132q-110 131 -110 333zM211 442q0 -119 58.5 -186.5t152.5 -67.5q144 0 227 103q86 106 86 256q0 123 -58 195.5t-171 72.5q-120 0 -207 -106 q-88 -107 -88 -267zM328 1319q0 53 38 91t89 38q54 0 91.5 -37.5t37.5 -91.5t-37.5 -91.5t-91.5 -37.5q-51 0 -89 38t-38 91zM719 1319q0 54 37.5 91.5t91.5 37.5q52 0 89.5 -38t37.5 -91t-37.5 -91t-89.5 -38q-54 0 -91.5 37.5t-37.5 91.5z" />
<glyph unicode="&#xe5;" horiz-adv-x="1052" d="M-18 442q0 244 147 414q147 172 369 172q188 0 282 -143l17 119h223l-141 -1004h-224l13 98q-109 -121 -291 -121q-171 0 -285 132q-110 131 -110 333zM211 442q0 -119 58.5 -186.5t152.5 -67.5q144 0 227 103q86 106 86 256q0 123 -58 195.5t-171 72.5q-120 0 -207 -106 q-88 -107 -88 -267zM481 1282q0 77 55 126.5t136 49.5q63 0 104 -43t41 -106q0 -73 -56 -124.5t-134 -51.5q-62 0 -104 43.5t-42 105.5zM602 1290q0 -43 41 -43q23 0 38 14t15 37q0 18 -11.5 29.5t-29.5 11.5q-23 0 -38 -14t-15 -35z" />
<glyph unicode="&#xe6;" horiz-adv-x="1757" d="M92 264q0 178 131 266t338 88h203l4 33q7 75 -41 120.5t-133 45.5q-155 0 -258 -145l-135 147q78 101 191 155t237 54q202 0 309 -143q149 143 340 143q198 0 301 -127q100 -124 100 -307q0 -79 -12 -141l-4 -23h-686q-7 -112 53.5 -177t173.5 -65q161 0 283 140 l139 -152q-184 -199 -442 -199q-232 0 -350 148q-46 -37 -103 -72q-51 -29 -131.5 -52.5t-163.5 -23.5q-143 0 -246 80q-98 82 -98 207zM330 289q0 -49 38.5 -78t110.5 -29q68 0 146 30t133 77q-14 53 -8 141h-220q-91 0 -145.5 -37.5t-54.5 -103.5zM1014 618h430 q8 85 -37 141t-147 56q-87 0 -152.5 -56.5t-93.5 -140.5z" />
<glyph unicode="&#xe7;" horiz-adv-x="1103" d="M121 449q0 245 166 411q165 168 397 168q272 0 399 -201l-180 -151q-52 73 -102.5 106t-120.5 33q-131 0 -225 -104q-95 -106 -95 -256q0 -117 65 -192t169 -75q84 0 150 36.5t135 115.5l145 -156q-136 -167 -352 -198l-152 -267h-246l177 269h16q-155 33 -250.5 158 t-95.5 303z" />
<glyph unicode="&#xe8;" d="M119 440q0 245 155 416q156 172 396 172q195 0 293 -131q100 -129 100 -303q0 -67 -14 -139l-7 -23h-686q-5 -110 55 -177t164 -67q171 0 289 142l142 -154q-184 -199 -449 -199q-199 0 -319 132q-119 131 -119 331zM395 618h428q8 82 -35.5 139.5t-136.5 57.5 t-160.5 -55.5t-95.5 -141.5zM436 1436h287l149 -269h-229z" />
<glyph unicode="&#xe9;" d="M119 440q0 245 155 416q156 172 396 172q195 0 293 -131q100 -129 100 -303q0 -82 -21 -162h-686q-5 -110 55 -177t164 -67q171 0 289 142l142 -154q-184 -199 -449 -199q-199 0 -319 132q-119 131 -119 331zM395 618h428q8 82 -35.5 139.5t-136.5 57.5t-160.5 -55.5 t-95.5 -141.5zM518 1167l223 269h287l-280 -269h-230z" />
<glyph unicode="&#xea;" d="M119 440q0 245 155 416q156 172 396 172q195 0 293 -131q100 -129 100 -303q0 -82 -21 -162h-686q-5 -110 55 -177t164 -67q171 0 289 142l142 -154q-184 -199 -449 -199q-199 0 -319 132q-119 131 -119 331zM367 1167l235 269h264l162 -269h-221l-86 123l-119 -123h-235 zM395 618h428q8 82 -35.5 139.5t-136.5 57.5t-160.5 -55.5t-95.5 -141.5z" />
<glyph unicode="&#xeb;" d="M119 440q0 245 155 416q156 172 396 172q195 0 293 -131q100 -129 100 -303q0 -82 -21 -162h-686q-5 -110 55 -177t164 -67q171 0 289 142l142 -154q-184 -199 -449 -199q-199 0 -319 132q-119 131 -119 331zM381 1319q0 53 37.5 91t89.5 38q54 0 91.5 -37.5t37.5 -91.5 t-37.5 -91.5t-91.5 -37.5q-52 0 -89.5 38t-37.5 91zM395 618h428q8 82 -35.5 139.5t-136.5 57.5t-160.5 -55.5t-95.5 -141.5zM772 1319q0 54 37.5 91.5t91.5 37.5q51 0 89 -38t38 -91t-38 -91t-89 -38q-54 0 -91.5 37.5t-37.5 91.5z" />
<glyph unicode="&#xec;" horiz-adv-x="587" d="M109 1436h286l150 -269h-230zM119 0l141 1004h234l-142 -1004h-233z" />
<glyph unicode="&#xed;" horiz-adv-x="583" d="M119 0l141 1004h234l-142 -1004h-233zM254 1167l223 269h287l-281 -269h-229z" />
<glyph unicode="&#xee;" horiz-adv-x="587" d="M70 1167l235 269h264l162 -269h-221l-86 123l-119 -123h-235zM119 0l141 1004h234l-142 -1004h-233z" />
<glyph unicode="&#xef;" horiz-adv-x="587" d="M96 1318.5q0 53.5 37 90.5q38 38 90 38t90 -38q38 -37 38 -90.5t-38 -91.5q-38 -37 -90 -37t-90 37q-37 38 -37 91.5zM119 0l141 1004h234l-142 -1004h-233zM488 1318.5q0 53.5 38 90.5q38 38 90 38t89 -38q38 -37 38 -90.5t-38 -91.5q-37 -37 -89 -37t-90 37 q-38 38 -38 91.5z" />
<glyph unicode="&#xf0;" horiz-adv-x="1214" d="M135 401q0 233 160 381t377 148q67 0 86 -8l-103 178l-233 -119l27 186l131 68l-113 201h270l54 -95l227 117l-27 -186l-129 -66l166 -295q117 -205 117 -385q0 -231 -162 -389q-165 -160 -401 -160q-193 0 -320 115q-127 118 -127 309zM383 420q0 -97 62 -159t157 -62 q114 0 203 80q88 82 88 206q0 97 -62.5 159.5t-156.5 62.5q-115 0 -203 -82q-88 -79 -88 -205z" />
<glyph unicode="&#xf1;" horiz-adv-x="1167" d="M102 0l142 1004h229l-12 -82q109 106 266 106q160 0 254 -99.5t94 -266.5q0 -46 -8 -103q0 -1 -8 -57.5t-28 -198t-42 -303.5h-233l82 584q4 50 4 53q0 82 -46 131t-124 49q-105 0 -173 -70t-85 -192l-78 -555h-234zM397 1214q14 100 74.5 167t138.5 67q46 0 84 -14 l78 -31q56 -17 66 -17q46 0 55 50h164q-14 -100 -74.5 -167t-138.5 -67q-41 0 -82 15l-80 30q-43 17 -66 17q-46 0 -55 -50h-164z" />
<glyph unicode="&#xf2;" horiz-adv-x="1222" d="M96 457q0 245 170 409q168 162 418 162q200 0 328 -131q131 -131 131 -342q0 -247 -170 -414q-170 -164 -418 -164q-196 0 -330 134q-129 132 -129 346zM334 457q0 -119 67 -194t177 -75q134 0 229 103q94 104 94 256q0 119 -65.5 193.5t-173.5 74.5q-140 0 -234 -104 q-94 -101 -94 -254zM436 1436h287l149 -269h-229z" />
<glyph unicode="&#xf3;" horiz-adv-x="1222" d="M96 457q0 245 170 409q168 162 418 162q200 0 328 -131q131 -131 131 -342q0 -247 -170 -414q-170 -164 -418 -164q-196 0 -330 134q-129 132 -129 346zM334 457q0 -119 67 -194t177 -75q134 0 229 103q94 104 94 256q0 119 -65.5 193.5t-173.5 74.5q-140 0 -234 -104 q-94 -101 -94 -254zM526 1167l224 269h286l-280 -269h-230z" />
<glyph unicode="&#xf4;" horiz-adv-x="1222" d="M96 457q0 245 170 409q168 162 418 162q200 0 328 -131q131 -131 131 -342q0 -247 -170 -414q-170 -164 -418 -164q-196 0 -330 134q-129 132 -129 346zM334 457q0 -119 67 -194t177 -75q134 0 229 103q94 104 94 256q0 119 -65.5 193.5t-173.5 74.5q-140 0 -234 -104 q-94 -101 -94 -254zM385 1167l236 269h264l162 -269h-222l-86 123l-118 -123h-236z" />
<glyph unicode="&#xf5;" horiz-adv-x="1222" d="M96 457q0 245 170 409q168 162 418 162q200 0 328 -131q131 -131 131 -342q0 -247 -170 -414q-170 -164 -418 -164q-196 0 -330 134q-129 132 -129 346zM334 457q0 -119 67 -194t177 -75q134 0 229 103q94 104 94 256q0 119 -65.5 193.5t-173.5 74.5q-140 0 -234 -104 q-94 -101 -94 -254zM397 1214q14 100 74.5 167t138.5 67q46 0 84 -14l78 -31q56 -17 66 -17q46 0 55 50h164q-14 -100 -74.5 -167t-138.5 -67q-41 0 -82 15l-80 30q-43 17 -66 17q-46 0 -55 -50h-164z" />
<glyph unicode="&#xf6;" horiz-adv-x="1222" d="M96 457q0 245 170 409q168 162 418 162q200 0 328 -131q131 -131 131 -342q0 -247 -170 -414q-170 -164 -418 -164q-196 0 -330 134q-129 132 -129 346zM334 457q0 -119 67 -194t177 -75q134 0 229 103q94 104 94 256q0 119 -65.5 193.5t-173.5 74.5q-140 0 -234 -104 q-94 -101 -94 -254zM412 1318.5q0 53.5 37 90.5q38 38 90 38t90 -38q38 -37 38 -90.5t-38 -91.5q-38 -37 -90 -37t-90 37q-37 38 -37 91.5zM804 1318.5q0 53.5 38 90.5q38 38 89.5 38t88.5 -38q38 -37 38 -90.5t-38 -91.5q-37 -37 -88.5 -37t-89.5 37q-38 38 -38 91.5z" />
<glyph unicode="&#xf7;" horiz-adv-x="1331" d="M162 393l31 215h1003l-31 -215h-1003zM479 123q0 61 43 104t105 43q61 0 104 -43t43 -104q0 -60 -43 -103t-104 -43t-104.5 43t-43.5 103zM586 879q0 61 43 104t104 43q62 0 105 -43t43 -104q0 -60 -43.5 -103t-104.5 -43t-104 43t-43 103z" />
<glyph unicode="&#xf8;" horiz-adv-x="1245" d="M121 457q0 245 170 409q168 162 418 162q113 0 204 -45l76 90l156 -127l-74 -88q96 -125 96 -303q0 -247 -170 -414q-170 -164 -417 -164q-106 0 -211 48l-80 -95l-154 127l80 95q-94 125 -94 305zM358 457q0 -58 19 -113l385 459q-35 12 -76 12q-139 0 -233 -104 q-95 -103 -95 -254zM516 201q44 -13 86 -13q134 0 229 103q95 106 95 256q0 65 -21 115z" />
<glyph unicode="&#xf9;" horiz-adv-x="1144" d="M131 342q0 37 8 100l80 562h232l-84 -601q-2 -10 -2 -49q0 -80 41.5 -124t119.5 -44q97 0 161.5 69t82.5 183l80 566h233l-141 -1004h-229l10 82q-105 -105 -258 -105t-243.5 99.5t-90.5 265.5zM393 1436h287l149 -269h-229z" />
<glyph unicode="&#xfa;" horiz-adv-x="1144" d="M131 342q0 37 8 100l80 562h232l-84 -601q-2 -10 -2 -49q0 -80 41.5 -124t119.5 -44q97 0 161.5 69t82.5 183l80 566h233l-141 -1004h-229l10 82q-105 -105 -258 -105t-243.5 99.5t-90.5 265.5zM520 1167l223 269h287l-280 -269h-230z" />
<glyph unicode="&#xfb;" horiz-adv-x="1144" d="M131 342q0 37 8 100l80 562h232l-84 -601q-2 -10 -2 -49q0 -80 41.5 -124t119.5 -44q97 0 161.5 69t82.5 183l80 566h233l-141 -1004h-229l10 82q-105 -105 -258 -105t-243.5 99.5t-90.5 265.5zM354 1167l236 269h264l162 -269h-221l-86 123l-119 -123h-236z" />
<glyph unicode="&#xfc;" horiz-adv-x="1144" d="M131 342q0 37 8 100l80 562h232l-84 -601q-2 -10 -2 -49q0 -80 41.5 -124t119.5 -44q97 0 161.5 69t82.5 183l80 566h233l-141 -1004h-229l10 82q-105 -105 -258 -105t-243.5 99.5t-90.5 265.5zM366 1318.5q0 53.5 37 90.5q38 38 90.5 38t90.5 -38q38 -37 38 -90.5 t-38 -91.5q-38 -37 -90.5 -37t-90.5 37q-37 38 -37 91.5zM759 1318.5q0 53.5 38 90.5q38 38 89.5 38t88.5 -38q38 -37 38 -90.5t-38 -91.5q-37 -37 -88.5 -37t-89.5 37q-38 38 -38 91.5z" />
<glyph unicode="&#xfd;" horiz-adv-x="1140" d="M137 1004h256l160 -725l369 725h264l-758 -1401h-246l209 385zM537 1167l223 269h287l-281 -269h-229z" />
<glyph unicode="&#xfe;" horiz-adv-x="1257" d="M35 -397l258 1833h229l-69 -510q114 102 286 102q193 0 312 -137q120 -138 120 -336q0 -253 -159 -416q-158 -162 -400 -162q-83 0 -157 34t-117 87l-70 -495h-233zM385 449q0 -119 60 -193t169 -74q144 0 230 111q88 110 88 258q0 118 -61 192t-169 74q-146 0 -231 -110 q-86 -109 -86 -258z" />
<glyph unicode="&#xff;" horiz-adv-x="1118" d="M115 1004h256l159 -725l369 725h264l-757 -1401h-246l209 385zM360 1319q0 53 38 91t89 38q54 0 91.5 -37.5t37.5 -91.5t-37.5 -91.5t-91.5 -37.5q-51 0 -89 38t-38 91zM752 1319q0 54 37.5 91.5t91.5 37.5q51 0 89 -38t38 -91t-38 -91t-89 -38q-54 0 -91.5 37.5 t-37.5 91.5z" />
<glyph unicode="&#x152;" horiz-adv-x="1966" d="M135 635q0 345 240 573t583 228h1006l-31 -222h-647l-51 -370h612l-32 -223h-613l-55 -400h647l-31 -221h-1005q-276 0 -451 178q-172 181 -172 457zM387 645q0 -191 111 -306.5t299 -115.5h104l139 987h-104q-237 0 -393 -159t-156 -406z" />
<glyph unicode="&#x153;" horiz-adv-x="1935" d="M121 453q0 245 170 409q172 166 411 166q120 0 221 -49.5t156 -138.5q164 188 387 188q201 0 295 -125q99 -126 99 -309q0 -73 -17 -139l-4 -23h-686q-6 -113 55.5 -178.5t173.5 -65.5q160 0 281 142l135 -148q-190 -205 -444 -205q-256 0 -367 187q-169 -187 -418 -187 q-195 0 -321 138q-127 139 -127 338zM360 457q0 -119 66 -194t172 -75q131 0 229 101q101 101 101 256q0 122 -66 196t-176 74q-135 0 -229 -104q-97 -105 -97 -254zM1192 618h430q8 84 -38 140.5t-146 56.5q-88 0 -153 -56t-93 -141z" />
<glyph unicode="&#x178;" horiz-adv-x="1300" d="M188 1436h250l250 -668l434 668h273l-613 -934l-71 -502h-244l72 502zM514 1681q0 54 37 91q38 38 90 38t90 -38t38 -90.5t-38 -90.5t-90 -38.5t-90 36.5q-37 38 -37 92zM906 1681.5q0 52.5 38 90.5t89.5 38t88.5 -38q38 -37 38 -91t-38 -92q-37 -37 -88.5 -36.5 t-89.5 38.5t-38 90.5z" />
<glyph unicode="&#x2c6;" d="M354 1167l236 269h264l162 -269h-221l-86 123l-119 -123h-236z" />
<glyph unicode="&#x2dc;" horiz-adv-x="1179" d="M397 1214q14 100 74.5 167t138.5 67q46 0 84 -14l78 -31q56 -17 66 -17q46 0 55 50h164q-14 -100 -74.5 -167t-138.5 -67q-41 0 -82 15l-80 30q-43 17 -66 17q-46 0 -55 -50h-164z" />
<glyph unicode="&#x2000;" horiz-adv-x="905" />
<glyph unicode="&#x2001;" horiz-adv-x="1810" />
<glyph unicode="&#x2002;" horiz-adv-x="905" />
<glyph unicode="&#x2003;" horiz-adv-x="1810" />
<glyph unicode="&#x2004;" horiz-adv-x="603" />
<glyph unicode="&#x2005;" horiz-adv-x="452" />
<glyph unicode="&#x2006;" horiz-adv-x="301" />
<glyph unicode="&#x2007;" horiz-adv-x="301" />
<glyph unicode="&#x2008;" horiz-adv-x="226" />
<glyph unicode="&#x2009;" horiz-adv-x="362" />
<glyph unicode="&#x200a;" horiz-adv-x="100" />
<glyph unicode="&#x2010;" horiz-adv-x="1073" d="M164 430l31 215h747l-31 -215h-747z" />
<glyph unicode="&#x2011;" horiz-adv-x="1073" d="M164 430l31 215h747l-31 -215h-747z" />
<glyph unicode="&#x2012;" horiz-adv-x="1073" d="M164 430l31 215h747l-31 -215h-747z" />
<glyph unicode="&#x2013;" horiz-adv-x="1202" d="M164 430l31 215h886l-30 -215h-887z" />
<glyph unicode="&#x2014;" horiz-adv-x="1798" d="M164 430l31 215h1482l-30 -215h-1483z" />
<glyph unicode="&#x2018;" horiz-adv-x="577" d="M154 967l286 469h215l-256 -469h-245z" />
<glyph unicode="&#x2019;" horiz-adv-x="577" d="M121 967l256 469h246l-287 -469h-215z" />
<glyph unicode="&#x201a;" horiz-adv-x="530" d="M-63 -236l256 469h264l-287 -469h-233z" />
<glyph unicode="&#x201c;" horiz-adv-x="937" d="M162 967l289 469h215l-258 -469h-246zM524 967l287 469h215l-256 -469h-246z" />
<glyph unicode="&#x201d;" horiz-adv-x="937" d="M121 967l256 469h246l-287 -469h-215zM481 967l258 469h246l-289 -469h-215z" />
<glyph unicode="&#x201e;" horiz-adv-x="888" d="M-63 -236l256 469h264l-287 -469h-233zM297 -236l256 469h264l-287 -469h-233z" />
<glyph unicode="&#x2022;" horiz-adv-x="827" d="M150 537q0 115 79 194q83 80 195 80t192 -80t80 -194q0 -115 -80 -195q-81 -78 -192 -78q-115 0 -195 80q-79 79 -79 193z" />
<glyph unicode="&#x2026;" horiz-adv-x="1574" d="M121 123q0 61 42.5 104t104.5 43t105 -43t43 -104q0 -60 -43.5 -103t-104.5 -43t-104 43t-43 103zM647 123q0 61 43 104t105 43q61 0 104 -43t43 -104q0 -60 -43 -103t-104 -43t-104.5 43t-43.5 103zM1171 123q0 61 43 104t105 43q61 0 104 -43t43 -104q0 -60 -43 -103 t-104 -43t-104.5 43t-43.5 103z" />
<glyph unicode="&#x202f;" horiz-adv-x="362" />
<glyph unicode="&#x2039;" horiz-adv-x="747" d="M78 502l350 502h256l-362 -512l208 -492h-241z" />
<glyph unicode="&#x203a;" horiz-adv-x="747" d="M63 0l363 512l-209 492h242l211 -502l-351 -502h-256z" />
<glyph unicode="&#x205f;" horiz-adv-x="452" />
<glyph unicode="&#x20ac;" horiz-adv-x="1466" d="M129 438l29 203h139q3 64 20 141h-139l29 203h170q92 222 262 347.5t389 125.5q252 0 410 -227l-174 -158q-95 164 -271 164q-111 0 -206.5 -65t-155.5 -187h438l-29 -203h-479q-17 -69 -20 -141h479l-29 -203h-438q58 -239 297 -239q176 0 334 155l135 -176 q-222 -201 -502 -201q-215 0 -347.5 122.5t-168.5 338.5h-172z" />
<glyph unicode="&#x2122;" horiz-adv-x="1781" d="M164 1274l22 162h617l-23 -162h-223l-90 -643h-176l90 643h-217zM817 631l113 805h182l160 -480l299 480h186l-112 -805h-175l64 450l-191 -309h-180l-106 309l-64 -450h-176z" />
<glyph unicode="&#x25fc;" horiz-adv-x="1003" d="M0 0v1004h1004v-1004h-1004z" />
<glyph unicode="&#xfb01;" horiz-adv-x="1353" d="M121 795l29 209h169l9 51q59 381 458 381l93 -2l-31 -211q-27 2 -53 2q-111 0 -170 -48.5t-72 -156.5l-2 -16h711l-142 -1004h-233l112 795h-477l-112 -795h-232l113 795h-170zM1044 1308.5q0 61.5 43 102.5q43 43 104.5 43t104.5 -43q43 -41 43 -102.5t-43 -104.5 t-104.5 -43t-104.5 43t-43 104.5z" />
<glyph unicode="&#xfb02;" horiz-adv-x="1361" d="M121 795l29 209h169l9 51q59 381 458 381h553l-202 -1436h-234l174 1225h-282q-111 0 -170 -48.5t-72 -156.5l-2 -16h264l-29 -209h-264l-112 -795h-232l113 795h-170z" />
</font>
</defs>
</svg>
